<svg width="230" height="51" viewBox="0 0 230 51" fill="none" xmlns="http://www.w3.org/2000/svg"><g clip-path="url(#a)"><path d="M58.057 10.76v8.504L29.03 34v-8.503L58.057 10.76Z" fill="#ECC137"/><path d="M29.029 0v8.5l-16.743 8.503V8.5L29.029 0Z" fill="#fff"/><path d="M45.768 8.497v8.5l-16.74 8.5v-8.5l16.74-8.5Z" fill="#E3804B"/><path d="M45.768 25.5V34l-16.74 8.5V34l16.74-8.5Z" fill="#3CABD8"/><path d="M45.768 34v8.5L29.028 51v-8.5l16.74-8.5Z" fill="#008C7F"/><path d="M29.028 25.497V34l-16.742 8.5V34l16.742-8.503Z" fill="#3CABD8"/><path d="M29.029 16.997v8.5L0 40.233v-8.5l29.029-14.736Z" fill="#ECC137"/><path d="M29.029 8.5V17l-16.743 8.5V17l16.743-8.5Z" fill="#E3804B"/><path d="M57.264 32.65c0 .291.105.52.315.688.21.172.475.297.796.381l2.953.714c1.314.323 2.28.833 2.903 1.531.623.697.934 1.547.934 2.551a3.8 3.8 0 0 1-.328 1.57c-.22.484-.547.9-.983 1.25-.439.348-.983.623-1.642.83-.655.203-1.432.306-2.323.306a8.638 8.638 0 0 1-1.97-.216 7.817 7.817 0 0 1-1.704-.6 6.104 6.104 0 0 1-1.337-.882 4.026 4.026 0 0 1-.871-1.034l2.448-1.734c.354.494.848.882 1.487 1.16a4.86 4.86 0 0 0 1.944.42c.59 0 1.061-.104 1.412-.308.354-.203.531-.458.531-.765a.971.971 0 0 0-.252-.65c-.167-.193-.462-.345-.885-.445l-2.651-.662c-1.432-.358-2.461-.888-3.094-1.595-.632-.704-.947-1.544-.947-2.513 0-.542.118-1.062.354-1.556s.58-.924 1.035-1.289c.456-.365 1.013-.659 1.678-.878.666-.22 1.42-.333 2.262-.333a6.71 6.71 0 0 1 2.058.32 5.79 5.79 0 0 1 1.766.904c.514.39.92.862 1.226 1.415a3.8 3.8 0 0 1 .455 1.85h-3.231c0-.203-.056-.404-.164-.6a2.007 2.007 0 0 0-.469-.55 2.327 2.327 0 0 0-.72-.407 2.696 2.696 0 0 0-.921-.151c-.725 0-1.249.135-1.58.407-.328.27-.492.561-.492.868l.007.004Zm9.694 2.858a6.8 6.8 0 0 1 1.943-4.795 6.758 6.758 0 0 1 2.133-1.454 6.48 6.48 0 0 1 2.638-.536 6.35 6.35 0 0 1 2.612.537 6.87 6.87 0 0 1 2.134 1.453 6.914 6.914 0 0 1 1.438 2.154 6.62 6.62 0 0 1 .531 2.642 6.75 6.75 0 0 1-.53 2.664 6.876 6.876 0 0 1-1.44 2.154 6.62 6.62 0 0 1-2.133 1.44 6.579 6.579 0 0 1-2.612.523 6.706 6.706 0 0 1-2.638-.523 6.671 6.671 0 0 1-2.133-1.44 6.711 6.711 0 0 1-1.425-2.154 6.842 6.842 0 0 1-.518-2.665Zm3.182 0c0 .51.092.985.278 1.428.184.442.433.824.744 1.146.312.323.682.575 1.111.753.43.178.895.268 1.403.268s.973-.09 1.402-.268c.43-.178.8-.43 1.111-.753.312-.322.56-.704.744-1.146a3.68 3.68 0 0 0 .279-1.428 3.705 3.705 0 0 0-1.022-2.574 3.254 3.254 0 0 0-1.112-.752 3.624 3.624 0 0 0-1.402-.268c-.508 0-.974.09-1.403.268-.43.178-.8.43-1.11.753a3.683 3.683 0 0 0-.745 1.146 3.627 3.627 0 0 0-.278 1.427Zm12.673 6.53v-19.59h3.332v19.59h-3.332Zm14.49-1.634c-.403.562-.947 1.021-1.628 1.38-.682.358-1.462.536-2.337.536-.74 0-1.396-.11-1.97-.333a4.268 4.268 0 0 1-1.451-.904 3.889 3.889 0 0 1-.908-1.34 4.189 4.189 0 0 1-.314-1.609 3.7 3.7 0 0 1 .314-1.53 3.35 3.35 0 0 1 .974-1.25c.435-.359.99-.643 1.654-.856.666-.213 1.462-.32 2.386-.32h3.284v-.126c0-.681-.203-1.234-.606-1.657-.404-.426-1.01-.636-1.82-.636a3.42 3.42 0 0 0-1.513.346 3.486 3.486 0 0 0-1.213.982L89.96 31.2c.537-.662 1.229-1.236 2.07-1.72.843-.485 1.793-.737 2.855-.753.908 0 1.714.139 2.412.42.698.28 1.285.662 1.753 1.146.472.484.83 1.05 1.075 1.695a5.82 5.82 0 0 1 .367 2.067v7.984H97.31v-1.635h-.007Zm-5.302-2.27c0 .426.19.769.567 1.034.38.264.862.394 1.452.394a3.742 3.742 0 0 0 2.222-.778c.32-.246.576-.54.77-.88a2.23 2.23 0 0 0 .291-1.123H94.02c-.708 0-1.22.126-1.54.381a1.183 1.183 0 0 0-.479.969v.003Zm14.593 3.904h-3.283v-13.06h2.828v1.683a6.152 6.152 0 0 1 1.805-1.237 5.231 5.231 0 0 1 2.16-.445h.757v2.906h-.757a3.7 3.7 0 0 0-1.426.268 3.374 3.374 0 0 0-1.111.74c-.311.316-.55.688-.72 1.123a3.876 3.876 0 0 0-.253 1.415v6.608Zm7.295 0v-19.59h2.019v19.59h-2.019Zm13.987-2.651c-.187.407-.43.788-.731 1.134a4.924 4.924 0 0 1-1.062.917 5.362 5.362 0 0 1-1.35.626 5.256 5.256 0 0 1-1.576.23c-.725 0-1.367-.104-1.931-.307a4.253 4.253 0 0 1-1.438-.843 3.463 3.463 0 0 1-.895-1.263 3.947 3.947 0 0 1-.301-1.543c0-.475.098-.937.291-1.38.194-.442.492-.823.895-1.146.403-.323.914-.581 1.527-.778.613-.194 1.35-.294 2.209-.294h4.342v-.459c0-.458-.069-.9-.203-1.327a3.126 3.126 0 0 0-.633-1.134 3.18 3.18 0 0 0-1.084-.804c-.44-.203-.951-.306-1.541-.306-.622 0-1.199.116-1.73.345-.531.23-.996.559-1.403.982l-1.314-1.198a6.778 6.778 0 0 1 1.97-1.415 5.927 5.927 0 0 1 2.474-.575c.891 0 1.678.149 2.36.446a4.941 4.941 0 0 1 1.704 1.198c.455.5.796 1.079 1.022 1.734a6.26 6.26 0 0 1 .341 2.054v7.754h-1.943v-2.651.003Zm-7.272-1.046c0 .646.265 1.179.796 1.595.531.417 1.226.627 2.084.627a4.68 4.68 0 0 0 1.59-.281 4.378 4.378 0 0 0 1.402-.817c.413-.359.744-.798.996-1.328.253-.526.377-1.123.377-1.785h-4.342c-1.009 0-1.746.19-2.209.574-.462.385-.694.856-.694 1.415Zm24.742 3.697h-1.996v-6.936a5.31 5.31 0 0 0-.292-1.773 4.15 4.15 0 0 0-.845-1.44 4.04 4.04 0 0 0-1.35-.97 4.29 4.29 0 0 0-1.78-.358c-.606 0-1.17.12-1.691.358a4.27 4.27 0 0 0-1.363.982 4.823 4.823 0 0 0-.934 1.505 5.468 5.468 0 0 0-.38 1.925v6.707h-1.97v-13.06h1.97v2.652c.167-.323.403-.659.708-1.008a5.456 5.456 0 0 1 1.071-.943 5.99 5.99 0 0 1 1.377-.688 4.824 4.824 0 0 1 1.615-.268 5.82 5.82 0 0 1 2.36.472c.714.313 1.33.762 1.842 1.34a6.397 6.397 0 0 1 1.212 2.067c.295.8.443 1.683.443 2.651v6.785h.003Zm2.146-6.529c0-.901.164-1.75.492-2.552a6.518 6.518 0 0 1 1.35-2.08 6.306 6.306 0 0 1 2.032-1.388 6.315 6.315 0 0 1 2.536-.51c.472 0 .925.064 1.364.19.436.126.845.297 1.225.51.377.213.721.465 1.023.753.301.29.554.588.757.891v-8.878h1.996v19.59h-1.996v-2.347c-.387.63-.964 1.178-1.731 1.643-.766.469-1.645.701-2.638.701a6.315 6.315 0 0 1-2.536-.51 6.315 6.315 0 0 1-2.032-1.389 6.433 6.433 0 0 1-1.35-2.08 6.65 6.65 0 0 1-.492-2.55v.006Zm11.185 0a4.8 4.8 0 0 0-.354-1.85 4.56 4.56 0 0 0-2.385-2.474 4.306 4.306 0 0 0-1.78-.372c-.639 0-1.268.123-1.832.371a4.834 4.834 0 0 0-1.478.995 4.62 4.62 0 0 0-.996 1.48 4.607 4.607 0 0 0-.367 1.85c0 .665.121 1.278.367 1.85a4.75 4.75 0 0 0 .996 1.492c.42.426.914.756 1.478.995a4.642 4.642 0 0 0 1.832.358 4.35 4.35 0 0 0 1.78-.358 4.31 4.31 0 0 0 1.425-.995c.403-.426.724-.923.96-1.492a4.778 4.778 0 0 0 .354-1.85Zm6.541-3.165c0 .85.649 1.473 1.944 1.864l3.054.868c1.314.375 2.255.876 2.828 1.505.574.63.859 1.386.859 2.27 0 .495-.105.956-.315 1.39-.21.432-.521.813-.934 1.133-.413.323-.934.578-1.566.765-.633.188-1.377.281-2.235.281a8.491 8.491 0 0 1-3.422-.714 6.705 6.705 0 0 1-1.337-.778 4.755 4.755 0 0 1-.973-.956l1.514-1.124c.22.272.492.52.819.74.328.223.682.407 1.062.562a6.4 6.4 0 0 0 1.16.345c.397.078.787.117 1.173.117 1.01 0 1.764-.172 2.258-.51.495-.34.744-.756.744-1.25 0-.407-.15-.775-.455-1.098-.302-.323-.833-.604-1.59-.843l-2.903-.843c-1.262-.34-2.193-.83-2.789-1.466a3.193 3.193 0 0 1-.895-2.258 3.3 3.3 0 0 1 .315-1.414c.21-.45.531-.85.96-1.198.429-.35.964-.627 1.603-.83.639-.204 1.379-.307 2.222-.307.842 0 1.54.122 2.195.371a5.348 5.348 0 0 1 1.678.982 4.3 4.3 0 0 1 1.059 1.379c.242.51.367 1.03.367 1.556h-1.97c-.049-.713-.383-1.317-.996-1.811-.616-.494-1.393-.74-2.337-.74-.537 0-1.006.061-1.402.178-.397.12-.721.271-.974.458-.252.188-.439.4-.553.637a1.648 1.648 0 0 0-.177.74h.009Zm21.685 7.986a6.366 6.366 0 0 1-2.094 1.454c-.793.339-1.668.51-2.625.51a6.314 6.314 0 0 1-2.612-.536 6.863 6.863 0 0 1-2.133-1.453A6.92 6.92 0 0 1 176 38.15a6.621 6.621 0 0 1-.531-2.642c0-.937.177-1.815.531-2.642a6.881 6.881 0 0 1 1.439-2.154 6.756 6.756 0 0 1 2.133-1.453 6.427 6.427 0 0 1 2.612-.536c1.009 0 1.924.19 2.74.575a6.795 6.795 0 0 1 2.107 1.517l-1.39 1.38a4.683 4.683 0 0 0-1.54-1.073 4.777 4.777 0 0 0-1.917-.38 4.55 4.55 0 0 0-1.855.37 4.68 4.68 0 0 0-2.523 2.539 4.704 4.704 0 0 0-.367 1.863c0 .666.121 1.289.367 1.877.242.587.58 1.098 1.009 1.53a4.72 4.72 0 0 0 3.369 1.392c.691 0 1.317-.123 1.881-.371a4.963 4.963 0 0 0 1.501-1.008l1.337 1.402v-.007Zm10.352-.943a4.692 4.692 0 0 1-.731 1.134 4.894 4.894 0 0 1-1.061.917 5.369 5.369 0 0 1-1.351.626 5.247 5.247 0 0 1-1.576.23c-.724 0-1.366-.104-1.93-.307a4.258 4.258 0 0 1-1.439-.843 3.472 3.472 0 0 1-.894-1.263 3.93 3.93 0 0 1-.302-1.543c0-.475.098-.937.292-1.38.193-.442.491-.823.895-1.146.403-.323.914-.581 1.527-.778.612-.194 1.35-.294 2.208-.294h4.343v-.459c0-.458-.069-.9-.204-1.327a3.124 3.124 0 0 0-.632-1.134 3.174 3.174 0 0 0-1.085-.804c-.439-.203-.95-.306-1.54-.306a4.32 4.32 0 0 0-1.73.345c-.531.23-.997.559-1.403.982l-1.314-1.198a6.773 6.773 0 0 1 1.969-1.415 5.928 5.928 0 0 1 2.475-.575c.891 0 1.678.149 2.359.446a4.922 4.922 0 0 1 1.704 1.198c.456.5.797 1.079 1.023 1.734a6.26 6.26 0 0 1 .341 2.054v7.754h-1.944v-2.651.003Zm-7.272-1.046c0 .646.266 1.179.797 1.595.531.417 1.225.627 2.084.627a4.67 4.67 0 0 0 1.589-.281c.521-.188.99-.459 1.403-.817.413-.359.744-.798.996-1.328.252-.526.377-1.123.377-1.785h-4.342c-1.01 0-1.747.19-2.209.574-.462.381-.695.856-.695 1.415Zm25.424-2.833a6.68 6.68 0 0 1-.491 2.552c-.328.8-.78 1.492-1.351 2.08a6.291 6.291 0 0 1-2.031 1.388 6.32 6.32 0 0 1-2.537.51 5.03 5.03 0 0 1-1.376-.19 5.588 5.588 0 0 1-1.236-.51 4.986 4.986 0 0 1-1.009-.74 4.984 4.984 0 0 1-.744-.881v8.852h-1.996v-19.59h1.996v2.373c.387-.63.963-1.182 1.73-1.657.767-.474 1.645-.713 2.638-.713.908 0 1.754.17 2.537.51.783.34 1.458.804 2.032 1.389a6.432 6.432 0 0 1 1.35 2.08c.328.8.491 1.65.491 2.55l-.003-.003Zm-11.057 0c0 .646.115 1.254.341 1.825.226.569.544 1.063.947 1.48.403.416.875.742 1.412.981a4.254 4.254 0 0 0 1.744.359c.623 0 1.242-.12 1.806-.359a4.515 4.515 0 0 0 1.464-.982 4.75 4.75 0 0 0 .987-1.479 4.62 4.62 0 0 0 .367-1.825c0-.645-.121-1.25-.367-1.811a4.78 4.78 0 0 0-.987-1.466 4.515 4.515 0 0 0-1.464-.982 4.586 4.586 0 0 0-1.806-.359 4.21 4.21 0 0 0-1.744.359 4.476 4.476 0 0 0-2.359 2.448 4.81 4.81 0 0 0-.341 1.811Zm25.65.078c0 .12-.003.255-.013.407-.01.152-.03.281-.062.381h-10.73c0 .594.128 1.14.377 1.634.253.494.59.917 1.01 1.276.419.358.901.636 1.438.843a4.682 4.682 0 0 0 1.668.306c.757 0 1.429-.122 2.019-.37a5.154 5.154 0 0 0 1.54-.983l1.39 1.224a6.645 6.645 0 0 1-2.183 1.466c-.832.35-1.763.524-2.789.524a6.78 6.78 0 0 1-2.359-.433 6.291 6.291 0 0 1-2.107-1.289c-.623-.568-1.124-1.275-1.501-2.118-.377-.843-.567-1.825-.567-2.945 0-.937.151-1.815.455-2.642a6.388 6.388 0 0 1 1.301-2.154 6.029 6.029 0 0 1 2.032-1.44c.79-.35 1.668-.524 2.625-.524.957 0 1.865.184 2.664.55.8.364 1.482.858 2.045 1.478.564.62.997 1.344 1.301 2.167.302.824.456 1.706.456 2.642H230Zm-6.436-5.025c-.656 0-1.255.116-1.793.346a4.306 4.306 0 0 0-1.376.917c-.38.38-.675.823-.885 1.327-.21.5-.315 1.033-.315 1.595h8.737a3.98 3.98 0 0 0-.314-1.543c-.21-.5-.505-.947-.885-1.34a4.367 4.367 0 0 0-3.169-1.302Z" fill="#fff"/></g><defs><clipPath id="a"><path fill="#fff" d="M0 0h230v51H0z"/></clipPath></defs></svg>