<svg width="230" height="51" viewBox="0 0 230 51" fill="none" xmlns="http://www.w3.org/2000/svg"><g clip-path="url(#a)"><mask id="b" style="mask-type:luminance" maskUnits="userSpaceOnUse" x="0" y="0" width="230" height="51"><path d="M0 0h230v51H0V0Z" fill="#fff"/></mask><g mask="url(#b)"><path d="M58.057 10.76v8.504L29.03 34v-8.503L58.057 10.76Z" fill="#ECC137"/><path d="M29.029 0v8.5l-16.743 8.503V8.5L29.029 0Z" fill="#545C5C"/><path d="M45.768 8.496v8.5l-16.74 8.5v-8.5l16.74-8.5Z" fill="#E3804B"/><path d="M45.768 25.5V34l-16.74 8.5V34l16.74-8.5Z" fill="#3CABD8"/><path d="M45.768 34v8.5L29.028 51v-8.5l16.74-8.5Z" fill="#008C7F"/><path d="M29.028 25.496V34l-16.742 8.5V34l16.742-8.503Z" fill="#3CABD8"/><path d="M29.029 16.996v8.5L0 40.232v-8.5l29.029-14.736Z" fill="#ECC137"/><path d="M29.029 8.5V17l-16.743 8.5V17l16.743-8.5Z" fill="#E3804B"/><path d="M57.264 32.65c0 .29.105.52.315.687.21.172.475.297.796.381l2.953.714c1.314.323 2.28.833 2.903 1.531.623.697.934 1.547.934 2.551a3.8 3.8 0 0 1-.328 1.57c-.22.484-.547.9-.983 1.25-.439.348-.983.623-1.642.83-.655.203-1.432.306-2.323.306a8.641 8.641 0 0 1-1.97-.216 7.822 7.822 0 0 1-1.704-.6 6.105 6.105 0 0 1-1.337-.882 4.027 4.027 0 0 1-.871-1.034l2.448-1.734c.354.494.848.882 1.487 1.16a4.86 4.86 0 0 0 1.944.42c.59 0 1.061-.104 1.412-.308.354-.203.531-.458.531-.765a.97.97 0 0 0-.252-.65c-.167-.193-.462-.345-.885-.445l-2.651-.662c-1.432-.358-2.461-.888-3.094-1.595-.632-.704-.947-1.544-.947-2.513 0-.542.118-1.062.354-1.556s.58-.924 1.035-1.289c.456-.365 1.013-.659 1.678-.878.666-.22 1.42-.333 2.262-.333a6.708 6.708 0 0 1 2.058.32 5.79 5.79 0 0 1 1.766.904c.514.39.92.862 1.226 1.415a3.8 3.8 0 0 1 .455 1.85h-3.231c0-.203-.056-.404-.164-.6a2.008 2.008 0 0 0-.469-.55 2.327 2.327 0 0 0-.72-.407 2.696 2.696 0 0 0-.921-.15c-.725 0-1.249.134-1.58.406-.328.27-.492.561-.492.868l.007.003Zm9.694 2.857a6.8 6.8 0 0 1 1.943-4.795 6.759 6.759 0 0 1 2.133-1.454 6.478 6.478 0 0 1 2.638-.536 6.349 6.349 0 0 1 2.612.537c.797.345 1.52.838 2.134 1.453a6.914 6.914 0 0 1 1.438 2.154 6.62 6.62 0 0 1 .531 2.642 6.749 6.749 0 0 1-.53 2.664 6.877 6.877 0 0 1-1.44 2.154 6.621 6.621 0 0 1-2.133 1.44 6.58 6.58 0 0 1-2.612.523 6.707 6.707 0 0 1-2.638-.523 6.674 6.674 0 0 1-2.133-1.44 6.713 6.713 0 0 1-1.426-2.154 6.842 6.842 0 0 1-.517-2.665Zm3.182 0c0 .51.091.985.278 1.428.184.442.433.824.744 1.146.311.323.682.575 1.111.753.43.178.895.268 1.403.268s.973-.09 1.402-.268c.43-.178.8-.43 1.111-.753.312-.322.56-.704.744-1.146a3.68 3.68 0 0 0 .279-1.428 3.704 3.704 0 0 0-1.022-2.574 3.252 3.252 0 0 0-1.112-.752 3.624 3.624 0 0 0-1.402-.268c-.508 0-.974.09-1.403.268-.43.178-.8.43-1.11.753a3.68 3.68 0 0 0-.745 1.146 3.627 3.627 0 0 0-.278 1.427Zm12.673 6.53v-19.59h3.332v19.59h-3.332Zm14.491-1.634c-.404.562-.948 1.02-1.63 1.38-.68.358-1.46.535-2.336.535-.74 0-1.396-.11-1.97-.332a4.269 4.269 0 0 1-1.451-.904 3.89 3.89 0 0 1-.908-1.34 4.19 4.19 0 0 1-.314-1.609c0-.562.105-1.053.314-1.53a3.36 3.36 0 0 1 .974-1.25c.435-.359.99-.643 1.654-.856.666-.213 1.462-.32 2.386-.32h3.284v-.126c0-.68-.203-1.234-.606-1.657-.403-.426-1.01-.636-1.82-.636a3.418 3.418 0 0 0-1.513.346 3.493 3.493 0 0 0-1.213.981L89.96 31.2c.537-.662 1.229-1.236 2.07-1.72.843-.485 1.793-.737 2.855-.753.908 0 1.714.138 2.412.42.698.28 1.285.661 1.753 1.146a4.89 4.89 0 0 1 1.075 1.695 5.81 5.81 0 0 1 .367 2.067v7.983H97.31v-1.634h-.006ZM92 38.133c0 .426.19.77.567 1.033.38.265.862.395 1.452.395.387 0 .773-.068 1.16-.204.387-.136.74-.326 1.062-.575a2.91 2.91 0 0 0 .77-.878 2.23 2.23 0 0 0 .292-1.124H94.02c-.708 0-1.22.126-1.54.381a1.182 1.182 0 0 0-.479.97l-.001.002Zm14.594 3.904h-3.283v-13.06h2.828v1.683a6.148 6.148 0 0 1 1.805-1.237 5.23 5.23 0 0 1 2.16-.445h.757v2.906h-.757a3.7 3.7 0 0 0-1.426.268 3.37 3.37 0 0 0-1.111.74c-.311.316-.55.688-.72 1.123a3.864 3.864 0 0 0-.253 1.415v6.608Z" fill="#545C5C"/></g><path d="M113.889 22.448v19.59h2.019v-19.59h-2.019Zm29.461 19.59h1.993v-6.785c0-.968-.148-1.85-.443-2.65a6.422 6.422 0 0 0-1.212-2.068 5.254 5.254 0 0 0-1.842-1.34 5.817 5.817 0 0 0-2.36-.472 4.828 4.828 0 0 0-1.615.268c-.487.17-.95.4-1.377.688a5.462 5.462 0 0 0-1.071.943 5.161 5.161 0 0 0-.708 1.008v-2.652h-1.97v13.06h1.97v-6.707a5.453 5.453 0 0 1 .38-1.925 4.802 4.802 0 0 1 .934-1.505 4.272 4.272 0 0 1 1.363-.982 4.023 4.023 0 0 1 1.691-.358 4.292 4.292 0 0 1 1.78.358c.512.227.972.557 1.35.97.376.418.663.908.845 1.44.197.57.296 1.17.292 1.773v6.936Zm23.812-7.83c-1.295-.39-1.944-1.014-1.944-1.864l-.009.001c0-.257.061-.51.177-.74.114-.237.301-.449.553-.637.253-.187.577-.338.974-.458a4.978 4.978 0 0 1 1.402-.178c.944 0 1.721.246 2.337.74.613.494.947 1.098.996 1.811h1.97c0-.526-.125-1.046-.367-1.556a4.312 4.312 0 0 0-1.059-1.379 5.36 5.36 0 0 0-1.678-.982c-.655-.249-1.353-.37-2.195-.37-.843 0-1.583.102-2.222.306-.639.203-1.174.48-1.603.83-.429.348-.75.748-.96 1.198a3.292 3.292 0 0 0-.315 1.414 3.193 3.193 0 0 0 .895 2.258c.596.636 1.527 1.126 2.789 1.466l2.903.843c.757.24 1.288.52 1.59.843.305.323.455.691.455 1.098 0 .494-.249.91-.744 1.25-.494.338-1.248.51-2.258.51-.386 0-.776-.039-1.173-.117a6.394 6.394 0 0 1-1.16-.345 5.715 5.715 0 0 1-1.062-.562 3.699 3.699 0 0 1-.819-.74l-1.514 1.124c.276.364.604.686.973.956.414.31.862.571 1.337.778a8.487 8.487 0 0 0 3.422.714c.858 0 1.602-.093 2.235-.28.632-.188 1.153-.443 1.566-.766.413-.32.724-.7.934-1.133.21-.434.315-.895.315-1.39 0-.884-.285-1.64-.859-2.27-.573-.629-1.514-1.13-2.828-1.505l-3.054-.868Zm19.738 6.125.003-.003v.006l-.003-.003a6.37 6.37 0 0 1-2.091 1.451c-.793.34-1.668.51-2.625.51a6.311 6.311 0 0 1-2.612-.536 6.848 6.848 0 0 1-2.133-1.453A6.91 6.91 0 0 1 176 38.15a6.607 6.607 0 0 1-.531-2.642c0-.937.177-1.815.531-2.642a6.877 6.877 0 0 1 1.439-2.154 6.754 6.754 0 0 1 2.133-1.453 6.423 6.423 0 0 1 2.612-.536c1.009 0 1.924.19 2.74.575.793.366 1.508.88 2.107 1.517l-1.39 1.38a4.692 4.692 0 0 0-1.54-1.073 4.778 4.778 0 0 0-1.917-.38 4.546 4.546 0 0 0-1.855.37 4.676 4.676 0 0 0-2.523 2.54 4.691 4.691 0 0 0-.367 1.862 4.8 4.8 0 0 0 .367 1.877 4.682 4.682 0 0 0 2.553 2.565c.579.239 1.199.36 1.825.357.691 0 1.317-.123 1.881-.37a4.967 4.967 0 0 0 1.501-1.009l1.334 1.4Z" fill="#929497"/><path fill-rule="evenodd" clip-rule="evenodd" d="M127.876 39.387c-.187.407-.43.788-.731 1.134a4.937 4.937 0 0 1-1.062.917 5.365 5.365 0 0 1-2.926.856c-.725 0-1.367-.104-1.931-.307a4.246 4.246 0 0 1-1.438-.843 3.458 3.458 0 0 1-.895-1.263 3.946 3.946 0 0 1-.301-1.543c0-.475.098-.937.291-1.38.194-.442.492-.823.895-1.146.403-.323.914-.58 1.527-.778.613-.194 1.35-.294 2.209-.294h4.342v-.459c0-.458-.069-.9-.203-1.327a3.138 3.138 0 0 0-1.717-1.938c-.44-.203-.951-.306-1.541-.306-.622 0-1.199.116-1.73.345-.531.23-.996.56-1.403.982l-1.314-1.198a6.767 6.767 0 0 1 1.97-1.415 5.925 5.925 0 0 1 2.474-.575c.891 0 1.678.15 2.36.446a4.952 4.952 0 0 1 1.704 1.198c.455.5.796 1.08 1.022 1.734.227.661.342 1.355.341 2.054v7.754h-1.943v-2.648Zm-6.476.55c-.531-.417-.796-.95-.796-1.596 0-.559.232-1.03.695-1.415.462-.384 1.199-.574 2.208-.574h4.342c0 .662-.124 1.26-.376 1.785-.253.53-.584.97-.997 1.328a4.387 4.387 0 0 1-1.402.817 4.68 4.68 0 0 1-1.59.281c-.858 0-1.553-.21-2.084-.627Zm26.092-4.427c0-.902.164-1.75.492-2.553a6.505 6.505 0 0 1 1.35-2.08 6.298 6.298 0 0 1 2.032-1.388 6.313 6.313 0 0 1 2.536-.51c.472 0 .925.064 1.364.19.436.126.845.297 1.225.51.377.213.721.465 1.023.753.301.29.554.588.757.891v-8.878h1.996v19.59h-1.996v-2.347c-.387.63-.964 1.178-1.731 1.643-.766.47-1.645.701-2.638.701a6.313 6.313 0 0 1-2.536-.51 6.306 6.306 0 0 1-2.032-1.389 6.43 6.43 0 0 1-1.35-2.08 6.634 6.634 0 0 1-.492-2.55v.006Zm10.831-1.85c.239.587.359 1.215.354 1.85a4.787 4.787 0 0 1-.354 1.85 4.857 4.857 0 0 1-.96 1.491 4.343 4.343 0 0 1-3.205 1.353 4.638 4.638 0 0 1-1.832-.358 4.537 4.537 0 0 1-1.478-.995 4.741 4.741 0 0 1-.996-1.492 4.618 4.618 0 0 1-.367-1.85 4.593 4.593 0 0 1 .367-1.85 4.61 4.61 0 0 1 .996-1.48c.426-.42.928-.758 1.478-.995a4.563 4.563 0 0 1 1.832-.37 4.302 4.302 0 0 1 1.779.371 4.555 4.555 0 0 1 2.386 2.474Zm57.084 1.848c0 .902-.164 1.75-.492 2.552a6.468 6.468 0 0 1-1.35 2.08 6.293 6.293 0 0 1-2.032 1.388c-.783.34-1.628.51-2.536.51-.466 0-.929-.063-1.376-.19a5.582 5.582 0 0 1-1.236-.51 4.988 4.988 0 0 1-1.009-.74 4.948 4.948 0 0 1-.744-.88v8.851h-1.996V28.98h1.996v2.373c.387-.63.963-1.182 1.73-1.657.767-.474 1.645-.713 2.638-.713.908 0 1.754.17 2.537.51.783.34 1.458.804 2.032 1.39a6.426 6.426 0 0 1 1.35 2.08c.327.8.491 1.65.491 2.55l-.003-.004Zm-10.716 1.825a4.913 4.913 0 0 1-.341-1.825 4.8 4.8 0 0 1 .341-1.81 4.472 4.472 0 0 1 2.359-2.449 4.208 4.208 0 0 1 1.744-.358 4.586 4.586 0 0 1 3.27 1.34c.417.423.752.92.987 1.466.246.561.367 1.166.367 1.811a4.632 4.632 0 0 1-.367 1.825 4.754 4.754 0 0 1-.987 1.48 4.53 4.53 0 0 1-1.464.981 4.645 4.645 0 0 1-1.806.36 4.252 4.252 0 0 1-1.744-.36 4.484 4.484 0 0 1-1.412-.98 4.497 4.497 0 0 1-.947-1.48Zm-7.436 2.054a4.699 4.699 0 0 1-.731 1.134 4.894 4.894 0 0 1-1.061.917c-.42.27-.874.481-1.351.626a5.249 5.249 0 0 1-1.576.23c-.724 0-1.366-.104-1.93-.307a4.25 4.25 0 0 1-1.439-.843 3.46 3.46 0 0 1-.894-1.263 3.91 3.91 0 0 1-.302-1.543c0-.475.098-.937.292-1.38.193-.442.491-.823.894-1.146.404-.323.915-.58 1.528-.778.612-.194 1.35-.294 2.208-.294h4.342v-.459a4.392 4.392 0 0 0-.203-1.327 3.136 3.136 0 0 0-1.717-1.938c-.439-.203-.95-.306-1.54-.306-.623 0-1.2.116-1.73.345-.531.23-.997.56-1.403.982l-1.314-1.198a6.776 6.776 0 0 1 1.969-1.415 5.924 5.924 0 0 1 2.475-.575c.891 0 1.677.15 2.359.446a4.922 4.922 0 0 1 1.704 1.198c.456.5.797 1.08 1.023 1.734.226.656.34 1.34.34 2.054v7.754h-1.943v-2.648Zm-6.475.55c-.531-.417-.797-.95-.797-1.596 0-.559.233-1.034.695-1.415.462-.384 1.199-.574 2.209-.574h4.342c0 .662-.125 1.26-.377 1.785-.252.53-.583.97-.996 1.328a4.403 4.403 0 0 1-1.403.817 4.67 4.67 0 0 1-1.589.281c-.859 0-1.554-.21-2.084-.627ZM230 35.586c0 .12-.003.255-.013.407-.01.152-.03.281-.062.381h-10.73c0 .594.128 1.14.377 1.634.253.494.59.917 1.01 1.276.419.358.901.636 1.438.843a4.678 4.678 0 0 0 1.668.306c.757 0 1.429-.122 2.019-.37a5.166 5.166 0 0 0 1.54-.983l1.39 1.224a6.649 6.649 0 0 1-2.183 1.466c-.832.35-1.763.524-2.789.524a6.777 6.777 0 0 1-2.359-.433 6.284 6.284 0 0 1-3.608-3.407c-.377-.843-.567-1.825-.567-2.945 0-.937.151-1.815.455-2.642a6.366 6.366 0 0 1 1.301-2.154 6.024 6.024 0 0 1 2.032-1.44c.79-.35 1.668-.524 2.625-.524.957 0 1.865.184 2.664.55.8.364 1.482.858 2.045 1.478.564.62.997 1.344 1.301 2.167.302.824.456 1.706.456 2.642H230Zm-8.229-4.679a4.521 4.521 0 0 1 1.793-.346 4.364 4.364 0 0 1 3.169 1.302c.38.393.675.84.885 1.34a3.99 3.99 0 0 1 .314 1.543h-8.737c0-.562.105-1.095.315-1.595.21-.504.505-.947.885-1.327a4.3 4.3 0 0 1 1.376-.917Z" fill="#929497"/></g><defs><clipPath id="a"><path fill="#fff" d="M0 0h230v51H0z"/></clipPath></defs></svg>